<?xml version="1.0" encoding="utf-8"?>
<!-- Generator: Adobe Illustrator 22.1.0, SVG Export Plug-In . SVG Version: 6.00 Build 0)  -->
<svg version="1.1" id="Layer_1" xmlns="http://www.w3.org/2000/svg" xmlns:xlink="http://www.w3.org/1999/xlink" x="0px" y="0px"
	 viewBox="0 0 100 100" style="enable-background:new 0 0 100 100;" xml:space="preserve">
<g>
	<path d="M93.2,59.4h-0.9V9.6h0.9c1.5,0,2.8-1.3,2.8-2.8S94.7,4,93.2,4H6.8C5.3,4,4,5.3,4,6.8s1.3,2.8,2.8,2.8H7v49.8H6.8
		c-1.5,0-2.8,1.3-2.8,2.8C4,63.7,5.3,65,6.8,65h56.7c-0.7,5.5-1.9,8.9-3.8,11c-0.3,0.3-0.3,0.7-0.2,1.1c0.2,0.4,0.5,0.6,0.9,0.6h6.8
		v0.6c0,0-0.1,0-0.2,0c0,0-0.1,0-0.1,0h-0.5c-7.9,0-14.4,6.4-14.4,14.4V95c0,0.6,0.4,1,1,1h39.7c0.6,0,1-0.4,1-1v-2.5
		c0-7.9-6.4-14.4-14.4-14.4H79c0,0-0.1,0-0.1,0c-0.1,0-0.1,0-0.1,0v-0.6h6.8c0.4,0,0.7-0.2,0.9-0.6s0.1-0.8-0.1-1.1
		c-1.8-2.2-3-5.7-3.8-11h10.6c1.5,0,2.8-1.3,2.8-2.8C96,60.6,94.7,59.4,93.2,59.4z M6,6.8C6,6.4,6.4,6,6.8,6h86.4
		C93.6,6,94,6.4,94,6.8c0,0.4-0.4,0.8-0.8,0.8h-1.9c0,0,0,0,0,0H8c0,0,0,0,0,0H6.8C6.4,7.6,6,7.2,6,6.8z M9,9.6h81.3v49.8h-8.7
		c0-0.1-0.1-0.1-0.1-0.2c-0.1-0.1-0.1-0.3-0.2-0.4c-0.1-0.2-0.2-0.4-0.3-0.5c-0.1-0.1-0.2-0.3-0.3-0.4c-0.1-0.2-0.3-0.3-0.4-0.5
		c-0.1-0.1-0.2-0.2-0.3-0.3c-0.1-0.1-0.3-0.3-0.5-0.4c-0.1-0.1-0.2-0.2-0.4-0.3c-0.2-0.1-0.3-0.2-0.5-0.3c-0.1-0.1-0.3-0.2-0.4-0.2
		c-0.2-0.1-0.4-0.2-0.6-0.2c-0.1-0.1-0.3-0.1-0.4-0.2c-0.2-0.1-0.5-0.1-0.7-0.2c-0.1,0-0.2-0.1-0.4-0.1c-0.4-0.1-0.7-0.1-1.1-0.1h-4
		c-0.4,0-0.7,0-1.1,0.1c-0.1,0-0.2,0.1-0.4,0.1c-0.2,0-0.5,0.1-0.7,0.2c-0.1,0-0.3,0.1-0.4,0.2c-0.2,0.1-0.4,0.2-0.6,0.2
		c-0.1,0.1-0.3,0.1-0.4,0.2c-0.2,0.1-0.3,0.2-0.5,0.3c-0.1,0.1-0.3,0.2-0.4,0.3c-0.1,0.1-0.3,0.2-0.4,0.4c-0.1,0.1-0.2,0.2-0.4,0.4
		c-0.1,0.1-0.2,0.3-0.4,0.4c-0.1,0.1-0.2,0.3-0.3,0.4c-0.1,0.2-0.2,0.3-0.3,0.5c-0.1,0.2-0.2,0.3-0.2,0.5c0,0.1-0.1,0.1-0.1,0.2H9
		V9.6z M6,62.2c0-0.4,0.4-0.8,0.8-0.8H8h55.8c0,0.1,0,0.3,0,0.4c0,0.4-0.1,0.8-0.1,1.2H6.8C6.4,63,6,62.6,6,62.2z M69.3,79.1
		C69.3,79.1,69.4,79.1,69.3,79.1c0.3,0.2,0.6,0.3,0.8,0.4c0,0,0.1,0,0.1,0c0.9,0.4,1.8,0.6,2.8,0.6c1,0,2-0.2,2.9-0.6c0,0,0,0,0,0
		c0.3-0.1,0.6-0.3,0.9-0.5v1.1c-2.1,1.7-5.4,1.7-7.5,0V79.1z M78,73.2c0,0.3,0,0.5-0.1,0.8c-0.1,0.5-0.2,1-0.5,1.4
		c-0.1,0.2-0.2,0.4-0.4,0.7c0,0-0.1,0.1-0.1,0.2c-0.9,1.2-2.4,1.9-3.9,1.9s-3-0.7-4-2c0,0-0.1-0.1-0.1-0.1c-0.6-0.8-0.9-1.8-0.9-2.9
		v-6.6H71c0.4,0,0.7-0.2,0.9-0.5l1.1-1.9l1,1.8c0.2,0.3,0.5,0.5,0.9,0.5H78V73.2z M91.9,92.5V94H54.2v-1.5c0-6.8,5.5-12.4,12.4-12.4
		c0.3,0.4,0.7,0.9,1.1,1.2c0,0,0,0,0,0c1.5,1.3,3.4,2.1,5.4,2.1c2,0,3.9-0.7,5.4-2.1c0,0,0,0,0,0c0.4-0.3,0.7-0.7,1.1-1.2h0
		C86.3,80.2,91.9,85.7,91.9,92.5z M79.6,75.6c0,0,0-0.1,0-0.2c0.1-0.2,0.2-0.5,0.2-0.8c0-0.1,0.1-0.2,0.1-0.4C80,74,80,73.6,80,73.2
		v-7.6c0-0.6-0.4-1-1-1h-3.6l-1.5-2.9c-0.2-0.3-0.5-0.5-0.9-0.5c-0.4,0-0.7,0.2-0.9,0.5l-1.7,2.9h-3.4c-0.6,0-1,0.4-1,1v7.6
		c0,0.4,0,0.8,0.1,1.2c0,0.1,0.1,0.2,0.1,0.4c0.1,0.3,0.1,0.5,0.2,0.8c0,0,0,0.1,0,0.2h-4c1.6-2.6,2.6-6.2,3.2-11.5
		c0.1-0.7,0.2-1.4,0.2-2.2c0-0.4,0.1-0.8,0.3-1.2c0.7-2.2,2.7-3.6,5-3.6h4c2.3,0,4.2,1.4,4.9,3.6c0.1,0.4,0.2,0.8,0.3,1.2
		c0.1,0.7,0.1,1.5,0.2,2.2c0,0,0,0,0,0c0.6,5.2,1.6,8.9,3.2,11.5H79.6z M93.2,63H82.4c0-0.4-0.1-0.8-0.1-1.3c0-0.1,0-0.2,0-0.3h9.1
		h1.9c0.4,0,0.8,0.3,0.8,0.8C94,62.6,93.6,63,93.2,63z"/>
	<path d="M15.2,35.5h3.9h15.6c0.4,0,0.8-0.2,0.9-0.6s0.1-0.8-0.2-1.1L15.9,14.3c-0.3-0.3-0.7-0.4-1.1-0.2c-0.4,0.2-0.6,0.5-0.6,0.9
		v15.6v3.9C14.2,35,14.7,35.5,15.2,35.5z M16.2,33.5v-1.9h1.9v1.9H16.2z M32.3,33.5H20.1v-2.9c0-0.6-0.4-1-1-1h-2.9V17.4L32.3,33.5z
		"/>
	<path d="M42.9,40.6H25c-0.6,0-1,0.4-1,1s0.4,1,1,1h18c0.6,0,1-0.4,1-1S43.5,40.6,42.9,40.6z"/>
	<path d="M15.2,42.6H21c0.6,0,1-0.4,1-1s-0.4-1-1-1h-5.8c-0.6,0-1,0.4-1,1S14.7,42.6,15.2,42.6z"/>
	<path d="M67.9,44.9c0,0.6,0.4,1,1,1h18c0.6,0,1-0.4,1-1s-0.4-1-1-1h-18C68.4,43.9,67.9,44.4,67.9,44.9z"/>
	<path d="M59.2,45.9h5.8c0.6,0,1-0.4,1-1s-0.4-1-1-1h-5.8c-0.6,0-1,0.4-1,1S58.6,45.9,59.2,45.9z"/>
	<path d="M42.9,46.1h-7.6c-0.6,0-1,0.4-1,1s0.4,1,1,1h7.6c0.6,0,1-0.4,1-1S43.5,46.1,42.9,46.1z"/>
	<path d="M15.2,48.1h16.5c0.6,0,1-0.4,1-1s-0.4-1-1-1H15.2c-0.6,0-1,0.4-1,1S14.7,48.1,15.2,48.1z"/>
	<path d="M86.9,49h-7.6c-0.6,0-1,0.4-1,1s0.4,1,1,1h7.6c0.6,0,1-0.4,1-1S87.4,49,86.9,49z"/>
	<path d="M76.6,50c0-0.6-0.4-1-1-1H59.2c-0.6,0-1,0.4-1,1s0.4,1,1,1h16.5C76.2,51,76.6,50.6,76.6,50z"/>
	<path d="M42.9,51.6H27c-0.6,0-1,0.4-1,1s0.4,1,1,1h16c0.6,0,1-0.4,1-1S43.5,51.6,42.9,51.6z"/>
	<path d="M22.2,51.6h-7c-0.6,0-1,0.4-1,1s0.4,1,1,1h7c0.6,0,1-0.4,1-1S22.8,51.6,22.2,51.6z"/>
	<path d="M60.8,28.3H72v11.2c0,0.6,0.4,1,1,1s1-0.4,1-1V28.3h11.2c0.6,0,1-0.4,1-1s-0.4-1-1-1H74V15c0-0.6-0.4-1-1-1s-1,0.4-1,1
		v11.2H60.8c-0.6,0-1,0.4-1,1S60.2,28.3,60.8,28.3z"/>
	<path d="M76.4,22h2.3v2.3c0,0.6,0.4,1,1,1s1-0.4,1-1V22h2.3c0.6,0,1-0.4,1-1s-0.4-1-1-1h-2.3v-2.3c0-0.6-0.4-1-1-1s-1,0.4-1,1V20
		h-2.3c-0.6,0-1,0.4-1,1S75.9,22,76.4,22z"/>
	<path d="M83.1,34.3c0.6,0,1-0.4,1-1s-0.4-1-1-1h-6.6c-0.6,0-1,0.4-1,1s0.4,1,1,1H83.1z"/>
	<path d="M70.4,33.3c0-0.6-0.4-1-1-1h-6.6c-0.6,0-1,0.4-1,1s0.4,1,1,1h6.6C69.9,34.3,70.4,33.9,70.4,33.3z"/>
	<path d="M63,24c0.2,0.2,0.5,0.3,0.7,0.3s0.5-0.1,0.7-0.3l1.6-1.6l1.6,1.6c0.2,0.2,0.5,0.3,0.7,0.3s0.5-0.1,0.7-0.3
		c0.4-0.4,0.4-1,0-1.4L67.5,21l1.6-1.6c0.4-0.4,0.4-1,0-1.4s-1-0.4-1.4,0l-1.6,1.6L64.4,18c-0.4-0.4-1-0.4-1.4,0s-0.4,1,0,1.4
		l1.6,1.6L63,22.6C62.6,23,62.6,23.7,63,24z"/>
	<path d="M67.1,30.3v-0.5c0-0.6-0.4-1-1-1s-1,0.4-1,1v0.5c0,0.6,0.4,1,1,1S67.1,30.8,67.1,30.3z"/>
	<path d="M65.1,36.4v0.5c0,0.6,0.4,1,1,1s1-0.4,1-1v-0.5c0-0.6-0.4-1-1-1S65.1,35.8,65.1,36.4z"/>
</g>
</svg>
